<?xml version="1.0" encoding="utf-8"?>
<!-- Generator: Adobe Illustrator 21.0.2, SVG Export Plug-In . SVG Version: 6.00 Build 0)  -->
<svg version="1.1" id="Layer_1" xmlns="http://www.w3.org/2000/svg" xmlns:xlink="http://www.w3.org/1999/xlink" x="0px" y="0px"
	 viewBox="0 0 1000 1000" style="enable-background:new 0 0 1000 1000;" xml:space="preserve">
<path d="M500,500c138.1,0,250-111.9,250-250S638.1,0,500,0S250,111.9,250,250S361.9,500,500,500z M687.1,563.7l-93.4,373.8
	l-62.5-265.6l62.5-109.4H406.3l62.5,109.4l-62.5,265.6l-93.4-373.8C173.6,570.3,62.5,684.2,62.5,825v81.3c0,51.8,42,93.8,93.8,93.8
	h687.5c51.8,0,93.8-42,93.8-93.8V825C937.5,684.2,826.4,570.3,687.1,563.7L687.1,563.7z"/>
</svg>
