<?xml version="1.0" encoding="utf-8"?>
<!-- Generator: Adobe Illustrator 21.0.2, SVG Export Plug-In . SVG Version: 6.00 Build 0)  -->
<svg version="1.1" id="Layer_1" xmlns="http://www.w3.org/2000/svg" xmlns:xlink="http://www.w3.org/1999/xlink" x="0px" y="0px"
	 viewBox="0 0 1000 1000" style="enable-background:new 0 0 1000 1000;" xml:space="preserve">
<path d="M686.3,626.2L500,812.5L313.7,626.2C174,632.2,62.5,746.5,62.5,887.5v18.7c0,51.8,42,93.7,93.7,93.7h687.5
	c51.8,0,93.7-42,93.7-93.7v-18.7C937.5,746.5,826,632.2,686.3,626.2L686.3,626.2z M89.1,155.9l12.5,2.9v114.1
	c-13.7,8.2-23.4,22.5-23.4,39.6c0,16.4,9,30.1,21.7,38.5L69.4,472.7C66,486.2,73.5,500,84.2,500h81.6c10.7,0,18.2-13.9,14.8-27.3
	L150.2,351c12.7-8.4,21.7-22.1,21.7-38.5c0-17.2-9.8-31.4-23.4-39.6V170.2l128.9,31.1c-16.8,33.6-27.3,71.1-27.3,111.3
	c0,138.1,111.9,250,250,250s250-111.9,250-250c0-40.2-10.4-77.7-27.3-111.3l188.1-45.3c35.5-8.6,35.5-52.9,0-61.5L538.9,4.5
	c-25.4-6.1-52.1-6.1-77.5,0L89.1,94.2C53.7,102.8,53.7,147.3,89.1,155.9z"/>
</svg>
