<?xml version="1.0" encoding="utf-8"?>
<!-- Generator: Adobe Illustrator 21.0.2, SVG Export Plug-In . SVG Version: 6.00 Build 0)  -->
<svg version="1.1" id="Layer_1" xmlns="http://www.w3.org/2000/svg" xmlns:xlink="http://www.w3.org/1999/xlink" x="0px" y="0px"
	 viewBox="0 0 1000 1000" style="enable-background:new 0 0 1000 1000;" xml:space="preserve">
<path d="M698,564.8l-198,198l-198-198C168,576.8,62.5,687.9,62.5,825v81.3c0,51.8,42,93.8,93.8,93.8h687.5c51.8,0,93.8-42,93.8-93.8
	V825C937.5,687.9,832,576.8,698,564.8z M125,375c53.3,0,101.2-22.5,135.2-58c29.5,105.3,125,183,239.8,183
	c138.1,0,250-111.9,250-250S638.1,0,500,0c-98.4,0-182.8,57.4-223.6,140.2c-34-46.9-88.9-77.7-151.4-77.7
	c0,65.2,33.4,122.7,84.2,156.3C158.4,252.3,125,309.8,125,375z M406.3,187.5h187.5c34.6,0,62.5,27.9,62.5,62.5H343.8
	C343.8,215.4,371.7,187.5,406.3,187.5z"/>
</svg>
